<?xml version="1.0" encoding="UTF-8"?>
<svg version="1.1" xmlns="http://www.w3.org/2000/svg" width="400" height="400">
<path d="M0 0 C15.94753085 14.10983582 28.96316072 29.70767652 40.25537109 47.73803711 C40.82336426 48.6371582 40.82336426 48.6371582 41.40283203 49.55444336 C53.2307012 68.55289409 60.53065432 89.96466368 65.25537109 111.73803711 C65.52003174 112.87547363 65.52003174 112.87547363 65.79003906 114.03588867 C76.76018699 162.54807899 64.52263486 217.00244217 38.61083984 258.61010742 C21.58032255 285.3460564 -0.95285567 306.95865336 -27.74462891 323.73803711 C-28.34404297 324.11669922 -28.94345703 324.49536133 -29.56103516 324.88549805 C-48.55948589 336.71336721 -69.97125548 344.01332034 -91.74462891 348.73803711 C-92.88206543 349.00269775 -92.88206543 349.00269775 -94.04248047 349.27270508 C-142.55467079 360.242853 -197.00903397 348.00530088 -238.61669922 322.09350586 C-265.3526482 305.06298857 -286.96524515 282.52981034 -303.74462891 255.73803711 C-304.12329102 255.13862305 -304.50195312 254.53920898 -304.89208984 253.92163086 C-316.71995901 234.92318013 -324.01991214 213.51141054 -328.74462891 191.73803711 C-328.92106934 190.97974609 -329.09750977 190.22145508 -329.27929688 189.44018555 C-340.2494448 140.92799523 -328.01189267 86.47363205 -302.10009766 44.8659668 C-285.06958036 18.13001782 -262.53640214 -3.48257914 -235.74462891 -20.26196289 C-234.84550781 -20.82995605 -234.84550781 -20.82995605 -233.92822266 -21.40942383 C-214.92977192 -33.23729299 -193.51800233 -40.53724612 -171.74462891 -45.26196289 C-170.98633789 -45.43840332 -170.22804687 -45.61484375 -169.44677734 -45.79663086 C-110.34237564 -59.16201439 -45.04658127 -39.03910968 0 0 Z " fill="#FEFEFE" transform="translate(331.74462890625,48.261962890625)"/>
<path d="M0 0 C65.07180577 -7.62214934 65.07180577 -7.62214934 88.11843872 9.105896 C102.49827296 20.84165772 112.7574824 34.5546639 114.95275974 53.1993351 C116.84032571 72.76421294 115.31608479 92.53823537 113 112 C112.34 112 111.68 112 111 112 C110.979375 112.99 110.95875 113.98 110.9375 115 C109.59925392 124.0025616 98.41970159 131.74132108 92.31054688 137.86645508 C91.2468142 138.93646677 90.18326655 140.00666244 89.11988831 141.07702637 C85.65637508 144.56138673 82.18770202 148.04058704 78.71875 151.51953125 C77.51933142 152.72300267 76.31994501 153.92650615 75.12059021 155.13004112 C69.49067382 160.77895542 63.85838673 166.42549264 58.22314692 172.06909639 C51.73315817 178.56888018 45.2515572 185.0768824 38.77685308 191.59189111 C33.75777613 196.64113155 28.73104383 201.682668 23.69851923 206.71850508 C20.69824084 209.72113074 17.70134052 212.72695236 14.71250916 215.74097633 C11.90422148 218.57255812 9.08654492 221.39444901 6.26145744 224.20926666 C5.22884321 225.241386 4.19962226 226.2769136 3.17415047 227.31612968 C-7.72397576 238.3520672 -7.72397576 238.3520672 -16.5625 239.4375 C-27.56769965 238.03683823 -37.28936103 224.86047174 -44.7668457 217.37841797 C-45.57957443 216.56904785 -46.39230316 215.75967773 -47.22966003 214.92578125 C-49.88098343 212.28385827 -52.5286139 209.63827431 -55.17578125 206.9921875 C-57.03273949 205.13844717 -58.88977095 203.28478018 -60.74687195 201.43118286 C-64.62268998 197.56172394 -68.49608756 193.6898531 -72.3684082 189.81689453 C-76.83098287 185.35371738 -81.29912782 180.89617061 -85.7698701 176.4411763 C-90.09488841 172.13084428 -94.41432786 167.81496216 -98.73171043 163.49698257 C-100.55968987 161.6701807 -102.38928534 159.84499438 -104.22054482 158.02148056 C-106.77852377 155.47331874 -109.3300659 152.91887529 -111.88012695 150.36279297 C-112.63190216 149.61663727 -113.38367737 148.87048157 -114.15823364 148.10171509 C-124.43999779 137.75827176 -124.43999779 137.75827176 -125.62890625 131.90234375 C-125.60699219 130.92394531 -125.58507812 129.94554687 -125.5625 128.9375 C-125.56378906 127.95652344 -125.56507812 126.97554688 -125.56640625 125.96484375 C-124.45648677 120.15498935 -120.328318 116.07807546 -116.25598145 112.00201416 C-115.79394459 111.53685733 -115.33190774 111.07170049 -114.85586977 110.592448 C-113.32072073 109.04938039 -111.77859365 107.51349133 -110.23632812 105.97753906 C-109.12852751 104.86702593 -108.02115228 103.75608831 -106.91416931 102.64476013 C-103.91682884 99.63832656 -100.91322626 96.63822408 -97.90816307 93.63951206 C-94.76133723 90.49775961 -91.61940514 87.35111919 -88.47668457 84.20526123 C-83.20110191 78.92604391 -77.92132486 73.65104899 -72.63916016 68.37841797 C-66.53236879 62.28252145 -60.43283093 56.1794382 -54.33698893 50.07259393 C-49.09980495 44.8263363 -43.85873642 39.58398332 -38.61439657 34.34487891 C-35.4834539 31.21705405 -32.35387775 28.08789406 -29.22779846 24.95520782 C-26.29057507 22.0122101 -23.34850792 19.07414239 -20.40262032 16.13981819 C-19.32214072 15.06198422 -18.24336154 13.98244258 -17.16641045 12.90108299 C-15.69685426 11.42606645 -14.22128383 9.95734106 -12.74401855 8.49005127 C-11.50739094 7.25455473 -11.50739094 7.25455473 -10.24578094 5.99409866 C-6.63761704 2.79029785 -4.8881051 2 0 2 C0 1.34 0 0.68 0 0 Z " fill="#2FCC72" transform="translate(199,88)"/>
<path d="M0 0 C15.94753085 14.10983582 28.96316072 29.70767652 40.25537109 47.73803711 C40.82336426 48.6371582 40.82336426 48.6371582 41.40283203 49.55444336 C53.2307012 68.55289409 60.53065432 89.96466368 65.25537109 111.73803711 C65.52003174 112.87547363 65.52003174 112.87547363 65.79003906 114.03588867 C76.76018699 162.54807899 64.52263486 217.00244217 38.61083984 258.61010742 C21.58032255 285.3460564 -0.95285567 306.95865336 -27.74462891 323.73803711 C-28.34404297 324.11669922 -28.94345703 324.49536133 -29.56103516 324.88549805 C-48.55948589 336.71336721 -69.97125548 344.01332034 -91.74462891 348.73803711 C-92.88206543 349.00269775 -92.88206543 349.00269775 -94.04248047 349.27270508 C-142.55467079 360.242853 -197.00903397 348.00530088 -238.61669922 322.09350586 C-265.3526482 305.06298857 -286.96524515 282.52981034 -303.74462891 255.73803711 C-304.12329102 255.13862305 -304.50195312 254.53920898 -304.89208984 253.92163086 C-316.71995901 234.92318013 -324.01991214 213.51141054 -328.74462891 191.73803711 C-328.92106934 190.97974609 -329.09750977 190.22145508 -329.27929688 189.44018555 C-340.2494448 140.92799523 -328.01189267 86.47363205 -302.10009766 44.8659668 C-285.06958036 18.13001782 -262.53640214 -3.48257914 -235.74462891 -20.26196289 C-234.84550781 -20.82995605 -234.84550781 -20.82995605 -233.92822266 -21.40942383 C-214.92977192 -33.23729299 -193.51800233 -40.53724612 -171.74462891 -45.26196289 C-170.98633789 -45.43840332 -170.22804687 -45.61484375 -169.44677734 -45.79663086 C-110.34237564 -59.16201439 -45.04658127 -39.03910968 0 0 Z M-190.74462891 -27.26196289 C-191.40543457 -27.05313477 -192.06624023 -26.84430664 -192.74707031 -26.62915039 C-218.51167791 -18.37787494 -241.20371473 -3.81738427 -260.74462891 14.73803711 C-261.56785645 15.50446533 -261.56785645 15.50446533 -262.40771484 16.28637695 C-280.56333954 33.27337507 -295.06790541 53.79785091 -304.74462891 76.73803711 C-305.08880859 77.46764648 -305.43298828 78.19725586 -305.78759766 78.94897461 C-310.31838348 88.56604491 -312.85025369 98.82736949 -315.36962891 109.11303711 C-315.67888306 110.35005371 -315.67888306 110.35005371 -315.99438477 111.61206055 C-319.0682564 124.50611034 -320.0985354 137.32103496 -319.99462891 150.55053711 C-319.99185944 151.24603668 -319.98908997 151.94153625 -319.98623657 152.65811157 C-319.9359712 163.45279367 -319.53486631 174.07643217 -317.74462891 184.73803711 C-317.57318359 185.76799805 -317.40173828 186.79795898 -317.22509766 187.85913086 C-312.26306058 212.47723741 -301.99099569 238.66914567 -286.74462891 258.73803711 C-285.94615277 259.81854535 -285.14799267 260.89928717 -284.35009766 261.98022461 C-279.18278447 268.90200226 -273.69094955 275.46926846 -267.74462891 281.73803711 C-267.28781738 282.22739746 -266.83100586 282.71675781 -266.36035156 283.22094727 C-254.16506257 296.21765253 -240.2326512 306.92655576 -224.74462891 315.73803711 C-223.65408203 316.36452148 -222.56353516 316.99100586 -221.43994141 317.63647461 C-215.43465283 320.98530612 -209.5242961 323.77022339 -202.98681641 325.91381836 C-200.74462891 326.73803711 -200.74462891 326.73803711 -197.74462891 328.73803711 C-195.6568954 329.41590965 -193.5490904 330.03285061 -191.43212891 330.61303711 C-190.16884766 330.95979492 -188.90556641 331.30655273 -187.60400391 331.66381836 C-186.95625 331.84122559 -186.30849609 332.01863281 -185.64111328 332.20141602 C-183.90004727 332.69406059 -182.17290951 333.23525166 -180.44775391 333.78100586 C-151.35657447 342.86329992 -115.01194846 343.49294803 -85.74462891 334.73803711 C-84.92897461 334.49875488 -84.11332031 334.25947266 -83.27294922 334.01293945 C-41.65783126 321.61054882 -3.97206453 297.62453439 21.25537109 261.73803711 C21.69059082 261.12541016 22.12581055 260.5127832 22.57421875 259.8815918 C38.03611234 237.85993839 49.82065692 211.37966589 54.25537109 184.73803711 C54.45775391 183.53276367 54.66013672 182.32749023 54.86865234 181.08569336 C59.24730721 151.24957513 56.40094763 121.32943646 47.25537109 92.73803711 C46.99554443 91.92326904 46.73571777 91.10850098 46.46801758 90.26904297 C45.04275536 85.88874007 43.41541588 81.89286031 41.27490234 77.81225586 C40.19676213 75.61879818 39.35393681 73.40453836 38.50537109 71.11303711 C27.351768 42.83995021 2.90041916 15.85750628 -21.74462891 -1.26196289 C-22.35290527 -1.69283203 -22.96118164 -2.12370117 -23.58789062 -2.56762695 C-45.61320835 -18.03706243 -72.09514802 -29.82594167 -98.74462891 -34.26196289 C-99.94990234 -34.4643457 -101.15517578 -34.66672852 -102.39697266 -34.87524414 C-132.21541054 -39.2513043 -162.17674478 -36.43652107 -190.74462891 -27.26196289 Z " fill="#3ACF79" transform="translate(331.74462890625,48.261962890625)"/>
<path d="M0 0 C3.53359455 2.52233558 6.48879021 5.46505121 9.375 8.6953125 C7.82795984 12.6126715 5.15459258 14.92275453 2.0625 17.6328125 C-5.27459205 24.21771105 -12.19185294 31.20249312 -19.11254883 38.22045898 C-23.57438822 42.72512397 -28.06049173 47.07933265 -32.94018555 51.1315918 C-34.77432015 52.83390047 -36.1816554 54.65643316 -37.625 56.6953125 C-30.08737315 59.50001086 -21.97568113 60.17444207 -14.29296875 57.5625 C-6.88328748 54.07236653 -2.17726824 50.62008343 1.125 43.0078125 C2.61876389 38.74109466 2.77722411 34.508852 2.87109375 30.015625 C3.375 27.6953125 3.375 27.6953125 5.11328125 26.3828125 C7.58299822 25.63208679 9.5495056 25.49456266 12.125 25.5703125 C12.92421875 25.58835938 13.7234375 25.60640625 14.546875 25.625 C15.15015625 25.64820313 15.7534375 25.67140625 16.375 25.6953125 C17.05241899 38.41573569 15.67217545 48.79339649 7.2265625 58.73046875 C-1.70656561 68.21013845 -11.3580826 72.64241444 -24.4375 73.0703125 C-37.28597134 72.85044561 -46.13530978 67.52112102 -54.875 58.5078125 C-58.99359561 53.73380187 -60.94706786 48.71501254 -62.625 42.6953125 C-62.81578125 42.06367188 -63.0065625 41.43203125 -63.203125 40.78125 C-65.30550102 30.38616858 -63.74049444 20.18633284 -58.08203125 11.26171875 C-43.45040102 -8.59310214 -20.98747191 -13.0515841 0 0 Z " fill="#FBFEFC" transform="translate(219.625,167.3046875)"/>
<path d="M0 0 C0.66 0.99 1.32 1.98 2 3 C-10.6095287 15.78252528 -10.6095287 15.78252528 -14.875 19.375 C-17.61499974 21.73668786 -20.21741777 24.17152976 -22.75 26.75390625 C-23.76537842 27.78088623 -23.76537842 27.78088623 -24.80126953 28.82861328 C-26.17153733 30.22211143 -27.53719785 31.62015677 -28.89794922 33.02294922 C-29.52717285 33.66377441 -30.15639648 34.30459961 -30.8046875 34.96484375 C-31.37171387 35.5487085 -31.93874023 36.13257324 -32.52294922 36.73413086 C-34 38 -34 38 -36 38 C-39.39118204 31.78283293 -40.03588371 26.01147733 -39 19 C-36.32431001 10.89452154 -32.47518844 5.17731119 -25 1 C-23.3603125 0.071875 -23.3603125 0.071875 -21.6875 -0.875 C-14.51888366 -3.06203549 -6.96022576 -2.81370829 0 0 Z " fill="#35CD76" transform="translate(208,175)"/>
<path d="M0 0 C2.86262257 2.00992648 4.64014872 3.43748788 5.4453125 6.93359375 C5.66317186 10.77518043 5.2331958 12.63465991 3.125 15.9375 C-0.02709774 18.99688898 -2.45280077 19.52939743 -6.88671875 19.47265625 C-10.32010737 18.70474493 -11.94926606 16.76687377 -13.9921875 14.00390625 C-15 12 -15 12 -15.1875 8.375 C-12.42640855 0.52768744 -7.77395657 -1.84466766 0 0 Z " fill="#F9FDFB" transform="translate(280,115)"/>
<path d="M0 0 C-1.45745424 3.36335594 -3.31117854 5.54534005 -5.9140625 8.109375 C-6.67460938 8.86347656 -7.43515625 9.61757813 -8.21875 10.39453125 C-9.0128125 11.17183594 -9.806875 11.94914062 -10.625 12.75 C-11.42679688 13.54277344 -12.22859375 14.33554687 -13.0546875 15.15234375 C-15.03202846 17.10614493 -17.01388909 19.05512103 -19 21 C-19.66 20.67 -20.32 20.34 -21 20 C-16.78219909 14.95052004 -12.30966492 10.17768642 -7.6875 5.5 C-7.15995117 4.95956055 -6.63240234 4.41912109 -6.08886719 3.86230469 C-2.23649769 0 -2.23649769 0 0 0 Z " fill="#80DFA9" transform="translate(69,49)"/>
</svg>
